<mxfile host="app.diagrams.net" modified="2022-01-21T03:58:03.586Z" agent="5.0 (Windows)" etag="NubBtbvu_8yacyfL3aSm" version="16.2.7" type="github">
  <diagram id="Arsce1lhnxzf3GvLfII_" name="第1頁">
    <mxGraphModel dx="1422" dy="744" grid="1" gridSize="10" guides="1" tooltips="1" connect="1" arrows="1" fold="1" page="1" pageScale="1" pageWidth="1169" pageHeight="827" math="0" shadow="0">
      <root>
        <mxCell id="0" />
        <mxCell id="1" parent="0" />
        <mxCell id="FeWT-kClf4YKD-GhPPuV-12" value="travellers" style="swimlane;fontStyle=0;childLayout=stackLayout;horizontal=1;startSize=40;horizontalStack=0;resizeParent=1;resizeParentMax=0;resizeLast=0;collapsible=1;marginBottom=0;align=left;fontSize=16;fontColor=#FFFFFF;fillColor=#FF6602;spacing=0;strokeColor=#FFFFFF;strokeWidth=2;spacingLeft=10;" vertex="1" parent="1">
          <mxGeometry x="150" y="220" width="130" height="100" as="geometry">
            <mxRectangle x="150" y="220" width="110" height="40" as="alternateBounds" />
          </mxGeometry>
        </mxCell>
        <mxCell id="FeWT-kClf4YKD-GhPPuV-20" value="PK : id" style="text;strokeColor=#FFFFFF;fillColor=#FDE5CD;spacingLeft=10;spacingRight=0;overflow=hidden;rotatable=0;points=[[0,0.5],[1,0.5]];portConstraint=eastwest;fontSize=16;strokeWidth=2;perimeterSpacing=0;sketch=0;shadow=0;rounded=0;glass=0;spacing=0;fontStyle=0" vertex="1" parent="FeWT-kClf4YKD-GhPPuV-12">
          <mxGeometry y="40" width="130" height="30" as="geometry" />
        </mxCell>
        <mxCell id="FeWT-kClf4YKD-GhPPuV-13" value="name" style="text;strokeColor=#FFFFFF;fillColor=#FDE5CD;spacingLeft=10;spacingRight=0;overflow=hidden;rotatable=0;points=[[0,0.5],[1,0.5]];portConstraint=eastwest;fontSize=16;strokeWidth=2;sketch=0;shadow=0;rounded=0;glass=0;spacing=0;" vertex="1" parent="FeWT-kClf4YKD-GhPPuV-12">
          <mxGeometry y="70" width="130" height="30" as="geometry" />
        </mxCell>
        <mxCell id="FeWT-kClf4YKD-GhPPuV-21" value="tickets" style="swimlane;fontStyle=0;childLayout=stackLayout;horizontal=1;startSize=40;horizontalStack=0;resizeParent=1;resizeParentMax=0;resizeLast=0;collapsible=1;marginBottom=0;align=left;fontSize=16;fontColor=#FFFFFF;fillColor=#FF6602;spacing=0;strokeColor=#FFFFFF;strokeWidth=2;spacingLeft=10;" vertex="1" parent="1">
          <mxGeometry x="380" y="220" width="130" height="190" as="geometry">
            <mxRectangle x="150" y="220" width="110" height="40" as="alternateBounds" />
          </mxGeometry>
        </mxCell>
        <mxCell id="FeWT-kClf4YKD-GhPPuV-22" value="PK : id" style="text;strokeColor=#FFFFFF;fillColor=#FDE5CD;spacingLeft=10;spacingRight=0;overflow=hidden;rotatable=0;points=[[0,0.5],[1,0.5]];portConstraint=eastwest;fontSize=16;strokeWidth=2;perimeterSpacing=0;sketch=0;shadow=0;rounded=0;glass=0;spacing=0;fontStyle=0" vertex="1" parent="FeWT-kClf4YKD-GhPPuV-21">
          <mxGeometry y="40" width="130" height="30" as="geometry" />
        </mxCell>
        <mxCell id="FeWT-kClf4YKD-GhPPuV-23" value="price" style="text;strokeColor=#FFFFFF;fillColor=#FDE5CD;spacingLeft=10;spacingRight=0;overflow=hidden;rotatable=0;points=[[0,0.5],[1,0.5]];portConstraint=eastwest;fontSize=16;strokeWidth=2;sketch=0;shadow=0;rounded=0;glass=0;spacing=0;" vertex="1" parent="FeWT-kClf4YKD-GhPPuV-21">
          <mxGeometry y="70" width="130" height="30" as="geometry" />
        </mxCell>
        <mxCell id="FeWT-kClf4YKD-GhPPuV-56" value="time" style="text;strokeColor=#FFFFFF;fillColor=#FDE5CD;spacingLeft=10;spacingRight=0;overflow=hidden;rotatable=0;points=[[0,0.5],[1,0.5]];portConstraint=eastwest;fontSize=16;strokeWidth=2;sketch=0;shadow=0;rounded=0;glass=0;spacing=0;" vertex="1" parent="FeWT-kClf4YKD-GhPPuV-21">
          <mxGeometry y="100" width="130" height="30" as="geometry" />
        </mxCell>
        <mxCell id="FeWT-kClf4YKD-GhPPuV-57" value="destination" style="text;strokeColor=#FFFFFF;fillColor=#FDE5CD;spacingLeft=10;spacingRight=0;overflow=hidden;rotatable=0;points=[[0,0.5],[1,0.5]];portConstraint=eastwest;fontSize=16;strokeWidth=2;sketch=0;shadow=0;rounded=0;glass=0;spacing=0;" vertex="1" parent="FeWT-kClf4YKD-GhPPuV-21">
          <mxGeometry y="130" width="130" height="30" as="geometry" />
        </mxCell>
        <mxCell id="FeWT-kClf4YKD-GhPPuV-51" value="FK : traveller_id" style="text;strokeColor=#FFFFFF;fillColor=#FDE5CD;spacingLeft=10;spacingRight=0;overflow=hidden;rotatable=0;points=[[0,0.5],[1,0.5]];portConstraint=eastwest;fontSize=16;strokeWidth=2;sketch=0;shadow=0;rounded=0;glass=0;spacing=0;" vertex="1" parent="FeWT-kClf4YKD-GhPPuV-21">
          <mxGeometry y="160" width="130" height="30" as="geometry" />
        </mxCell>
        <mxCell id="FeWT-kClf4YKD-GhPPuV-31" value="Traveller" style="rounded=1;whiteSpace=wrap;html=1;fillColor=#FF6602;strokeColor=#BD7000;fontColor=#FFFFFF;fontSize=20;" vertex="1" parent="1">
          <mxGeometry x="600" y="580" width="120" height="60" as="geometry" />
        </mxCell>
        <mxCell id="FeWT-kClf4YKD-GhPPuV-32" value="1" style="text;html=1;align=center;verticalAlign=middle;resizable=0;points=[];autosize=1;strokeColor=none;fillColor=none;" vertex="1" parent="1">
          <mxGeometry x="730" y="590" width="20" height="20" as="geometry" />
        </mxCell>
        <mxCell id="FeWT-kClf4YKD-GhPPuV-33" value="&lt;div&gt;M&lt;/div&gt;" style="text;html=1;align=center;verticalAlign=middle;resizable=0;points=[];autosize=1;strokeColor=none;fillColor=none;" vertex="1" parent="1">
          <mxGeometry x="830" y="590" width="20" height="20" as="geometry" />
        </mxCell>
        <mxCell id="FeWT-kClf4YKD-GhPPuV-34" style="edgeStyle=none;rounded=0;orthogonalLoop=1;jettySize=auto;html=1;entryX=0.5;entryY=0;entryDx=0;entryDy=0;fontSize=16;fontColor=#FFFFFF;endArrow=none;endFill=0;strokeColor=#FF6602;strokeWidth=3;" edge="1" parent="1" source="FeWT-kClf4YKD-GhPPuV-35" target="FeWT-kClf4YKD-GhPPuV-31">
          <mxGeometry relative="1" as="geometry" />
        </mxCell>
        <mxCell id="FeWT-kClf4YKD-GhPPuV-35" value="id" style="ellipse;whiteSpace=wrap;html=1;fillColor=#FFE598;fontSize=16;" vertex="1" parent="1">
          <mxGeometry x="525" y="470" width="90" height="60" as="geometry" />
        </mxCell>
        <mxCell id="FeWT-kClf4YKD-GhPPuV-36" value="Ticket" style="rounded=1;whiteSpace=wrap;html=1;fillColor=#FF6602;strokeColor=#BD7000;fontColor=#FFFFFF;fontSize=20;" vertex="1" parent="1">
          <mxGeometry x="860" y="580" width="120" height="60" as="geometry" />
        </mxCell>
        <mxCell id="FeWT-kClf4YKD-GhPPuV-37" value="name" style="ellipse;whiteSpace=wrap;html=1;fillColor=#FFE598;fontSize=16;" vertex="1" parent="1">
          <mxGeometry x="520" y="699" width="90" height="60" as="geometry" />
        </mxCell>
        <mxCell id="FeWT-kClf4YKD-GhPPuV-38" style="edgeStyle=none;rounded=0;orthogonalLoop=1;jettySize=auto;html=1;fontSize=16;fontColor=#FFFFFF;endArrow=none;endFill=0;strokeColor=#FF6602;strokeWidth=3;" edge="1" parent="1" source="FeWT-kClf4YKD-GhPPuV-39">
          <mxGeometry relative="1" as="geometry">
            <mxPoint x="926" y="640" as="targetPoint" />
          </mxGeometry>
        </mxCell>
        <mxCell id="FeWT-kClf4YKD-GhPPuV-39" value="id" style="ellipse;whiteSpace=wrap;html=1;fillColor=#FFE598;fontSize=16;" vertex="1" parent="1">
          <mxGeometry x="900" y="699" width="90" height="60" as="geometry" />
        </mxCell>
        <mxCell id="FeWT-kClf4YKD-GhPPuV-40" style="edgeStyle=none;rounded=0;orthogonalLoop=1;jettySize=auto;html=1;entryX=1;entryY=0.5;entryDx=0;entryDy=0;fontSize=16;fontColor=#FFFFFF;endArrow=none;endFill=0;strokeColor=#FF6602;strokeWidth=3;" edge="1" parent="1" source="FeWT-kClf4YKD-GhPPuV-41" target="FeWT-kClf4YKD-GhPPuV-36">
          <mxGeometry relative="1" as="geometry" />
        </mxCell>
        <mxCell id="FeWT-kClf4YKD-GhPPuV-41" value="price" style="ellipse;whiteSpace=wrap;html=1;fillColor=#FFE598;fontSize=16;" vertex="1" parent="1">
          <mxGeometry x="1030" y="600" width="90" height="60" as="geometry" />
        </mxCell>
        <mxCell id="FeWT-kClf4YKD-GhPPuV-42" style="edgeStyle=none;rounded=0;orthogonalLoop=1;jettySize=auto;html=1;entryX=0.5;entryY=0;entryDx=0;entryDy=0;fontSize=16;fontColor=#FFFFFF;endArrow=none;endFill=0;strokeColor=#FF6602;strokeWidth=3;" edge="1" parent="1" source="FeWT-kClf4YKD-GhPPuV-43" target="FeWT-kClf4YKD-GhPPuV-36">
          <mxGeometry relative="1" as="geometry" />
        </mxCell>
        <mxCell id="FeWT-kClf4YKD-GhPPuV-43" value="time" style="ellipse;whiteSpace=wrap;html=1;fillColor=#FFE598;fontSize=16;" vertex="1" parent="1">
          <mxGeometry x="1000" y="490" width="90" height="60" as="geometry" />
        </mxCell>
        <mxCell id="FeWT-kClf4YKD-GhPPuV-44" style="edgeStyle=none;rounded=0;orthogonalLoop=1;jettySize=auto;html=1;fontSize=16;fontColor=#FFFFFF;endArrow=none;endFill=0;strokeColor=#FF6602;strokeWidth=3;" edge="1" parent="1" source="FeWT-kClf4YKD-GhPPuV-45" target="FeWT-kClf4YKD-GhPPuV-36">
          <mxGeometry relative="1" as="geometry" />
        </mxCell>
        <mxCell id="FeWT-kClf4YKD-GhPPuV-45" value="destination" style="ellipse;whiteSpace=wrap;html=1;fillColor=#FFE598;fontSize=16;" vertex="1" parent="1">
          <mxGeometry x="870" y="450" width="90" height="60" as="geometry" />
        </mxCell>
        <mxCell id="FeWT-kClf4YKD-GhPPuV-46" style="edgeStyle=none;rounded=0;orthogonalLoop=1;jettySize=auto;html=1;fontSize=16;fontColor=#FFFFFF;endArrow=none;endFill=0;strokeColor=#FF6602;strokeWidth=3;" edge="1" parent="1" source="FeWT-kClf4YKD-GhPPuV-37" target="FeWT-kClf4YKD-GhPPuV-31">
          <mxGeometry relative="1" as="geometry">
            <mxPoint x="666.4123443098333" y="723.2831134928323" as="sourcePoint" />
            <mxPoint x="653.5799999999999" y="664" as="targetPoint" />
          </mxGeometry>
        </mxCell>
        <mxCell id="FeWT-kClf4YKD-GhPPuV-47" style="edgeStyle=none;rounded=0;orthogonalLoop=1;jettySize=auto;html=1;fontSize=16;fontColor=#FFFFFF;endArrow=none;endFill=0;strokeColor=#FF6602;strokeWidth=3;entryX=0;entryY=0.5;entryDx=0;entryDy=0;" edge="1" parent="1" source="FeWT-kClf4YKD-GhPPuV-31" target="FeWT-kClf4YKD-GhPPuV-36">
          <mxGeometry relative="1" as="geometry">
            <mxPoint x="575" y="709" as="sourcePoint" />
            <mxPoint x="637.9775280898875" y="650" as="targetPoint" />
          </mxGeometry>
        </mxCell>
      </root>
    </mxGraphModel>
  </diagram>
</mxfile>
